<svg id="visual" viewBox="0 0 900 600" width="900" height="600" xmlns="http://www.w3.org/2000/svg" xmlns:xlink="http://www.w3.org/1999/xlink" version="1.1"><rect x="0" y="0" width="900" height="600" fill="#d8e4e4"></rect><path d="M0 419L21.5 423.5C43 428 86 437 128.8 434.5C171.7 432 214.3 418 257.2 401.8C300 385.7 343 367.3 385.8 371.3C428.7 375.3 471.3 401.7 514.2 405.8C557 410 600 392 642.8 384.5C685.7 377 728.3 380 771.2 391C814 402 857 421 878.5 430.5L900 440L900 601L878.5 601C857 601 814 601 771.2 601C728.3 601 685.7 601 642.8 601C600 601 557 601 514.2 601C471.3 601 428.7 601 385.8 601C343 601 300 601 257.2 601C214.3 601 171.7 601 128.8 601C86 601 43 601 21.5 601L0 601Z" fill="#f8c40d"></path><path d="M0 440L21.5 445.8C43 451.7 86 463.3 128.8 462.2C171.7 461 214.3 447 257.2 442C300 437 343 441 385.8 440.8C428.7 440.7 471.3 436.3 514.2 428.3C557 420.3 600 408.7 642.8 414.8C685.7 421 728.3 445 771.2 450C814 455 857 441 878.5 434L900 427L900 601L878.5 601C857 601 814 601 771.2 601C728.3 601 685.7 601 642.8 601C600 601 557 601 514.2 601C471.3 601 428.7 601 385.8 601C343 601 300 601 257.2 601C214.3 601 171.7 601 128.8 601C86 601 43 601 21.5 601L0 601Z" fill="#ff8965"></path><path d="M0 446L21.5 453.2C43 460.3 86 474.7 128.8 483.3C171.7 492 214.3 495 257.2 491.7C300 488.3 343 478.7 385.8 471.2C428.7 463.7 471.3 458.3 514.2 463.3C557 468.3 600 483.7 642.8 490.2C685.7 496.7 728.3 494.3 771.2 495.2C814 496 857 500 878.5 502L900 504L900 601L878.5 601C857 601 814 601 771.2 601C728.3 601 685.7 601 642.8 601C600 601 557 601 514.2 601C471.3 601 428.7 601 385.8 601C343 601 300 601 257.2 601C214.3 601 171.7 601 128.8 601C86 601 43 601 21.5 601L0 601Z" fill="#ff73af"></path><path d="M0 485L21.5 485.7C43 486.3 86 487.7 128.8 487.5C171.7 487.3 214.3 485.7 257.2 492.3C300 499 343 514 385.8 513.7C428.7 513.3 471.3 497.7 514.2 494.2C557 490.7 600 499.3 642.8 506C685.7 512.7 728.3 517.3 771.2 522.3C814 527.3 857 532.7 878.5 535.3L900 538L900 601L878.5 601C857 601 814 601 771.2 601C728.3 601 685.7 601 642.8 601C600 601 557 601 514.2 601C471.3 601 428.7 601 385.8 601C343 601 300 601 257.2 601C214.3 601 171.7 601 128.8 601C86 601 43 601 21.5 601L0 601Z" fill="#be83e2"></path><path d="M0 547L21.5 545.7C43 544.3 86 541.7 128.8 544C171.7 546.3 214.3 553.7 257.2 559.2C300 564.7 343 568.3 385.8 564C428.7 559.7 471.3 547.3 514.2 546.3C557 545.3 600 555.7 642.8 554.2C685.7 552.7 728.3 539.3 771.2 534.5C814 529.7 857 533.3 878.5 535.2L900 537L900 601L878.5 601C857 601 814 601 771.2 601C728.3 601 685.7 601 642.8 601C600 601 557 601 514.2 601C471.3 601 428.7 601 385.8 601C343 601 300 601 257.2 601C214.3 601 171.7 601 128.8 601C86 601 43 601 21.5 601L0 601Z" fill="#4195f0"></path></svg>